REM DIRINDEX 1\2,1\3,1\4,1\5
REM DIRNAME "folder01","folder02","folder03","folder04","folder05"
TITLE ""
FILE "P1Q_j_1814-1827.mp3" MP3
  TRACK 01 AUDIO
    TITLE "3:cjc173_0644"
    INDEX 01 00:00:00
  TRACK 02 AUDIO
    TITLE "0:"
    INDEX 01 00:01:39
  TRACK 03 AUDIO
    TITLE "4:cjc173_0645"
    INDEX 01 00:01:59
  TRACK 04 AUDIO
    TITLE "0:"
    INDEX 01 00:05:51
  TRACK 05 AUDIO
    TITLE "5:cjc173_0646"
    INDEX 01 00:05:68
  TRACK 06 AUDIO
    TITLE "0:"
    INDEX 01 00:10:67
  TRACK 07 AUDIO
    TITLE "3:cjc173_0647"
    INDEX 01 00:11:39
  TRACK 08 AUDIO
    TITLE "0:"
    INDEX 01 00:13:01
  TRACK 09 AUDIO
    TITLE "4:cjc173_0648"
    INDEX 01 00:13:21
  TRACK 10 AUDIO
    TITLE "0:"
    INDEX 01 00:15:18
  TRACK 11 AUDIO
    TITLE "5:cjc173_0649"
    INDEX 01 00:15:37
  TRACK 12 AUDIO
    TITLE "0:"
    INDEX 01 00:19:72
  TRACK 13 AUDIO
    TITLE "3:cjc173_0650"
    INDEX 01 00:20:42
  TRACK 14 AUDIO
    TITLE "0:"
    INDEX 01 00:22:02
  TRACK 15 AUDIO
    TITLE "4:cjc173_0651"
    INDEX 01 00:22:22
  TRACK 16 AUDIO
    TITLE "0:"
    INDEX 01 00:29:55
  TRACK 17 AUDIO
    TITLE "5:cjc173_0652"
    INDEX 01 00:30:04
  TRACK 18 AUDIO
    TITLE "0:"
    INDEX 01 00:34:13
  TRACK 19 AUDIO
    TITLE "3:cjc173_0653"
    INDEX 01 00:34:58
  TRACK 20 AUDIO
    TITLE "0:"
    INDEX 01 00:36:16
  TRACK 21 AUDIO
    TITLE "4:cjc173_0654"
    INDEX 01 00:36:37
  TRACK 22 AUDIO
    TITLE "0:"
    INDEX 01 00:38:64
  TRACK 23 AUDIO
    TITLE "5:cjc173_0655"
    INDEX 01 00:39:06
  TRACK 24 AUDIO
    TITLE "0:"
    INDEX 01 00:43:51
  TRACK 25 AUDIO
    TITLE "3:cjc173_0656"
    INDEX 01 00:44:21
  TRACK 26 AUDIO
    TITLE "0:"
    INDEX 01 00:45:44
  TRACK 27 AUDIO
    TITLE "4:cjc173_0657"
    INDEX 01 00:45:66
  TRACK 28 AUDIO
    TITLE "0:"
    INDEX 01 00:49:70
  TRACK 29 AUDIO
    TITLE "5:cjc173_0658"
    INDEX 01 00:50:14
  TRACK 30 AUDIO
    TITLE "0:"
    INDEX 01 00:54:37
  TRACK 31 AUDIO
    TITLE "3:cjc173_0659"
    INDEX 01 00:55:09
  TRACK 32 AUDIO
    TITLE "0:"
    INDEX 01 00:56:50
  TRACK 33 AUDIO
    TITLE "4:cjc173_0660"
    INDEX 01 00:56:72
  TRACK 34 AUDIO
    TITLE "0:"
    INDEX 01 01:00:73
  TRACK 35 AUDIO
    TITLE "5:cjc173_0661"
    INDEX 01 01:01:18
  TRACK 36 AUDIO
    TITLE "0:"
    INDEX 01 01:06:05
  TRACK 37 AUDIO
    TITLE "3:cjc173_0662"
    INDEX 01 01:06:56
  TRACK 38 AUDIO
    TITLE "0:"
    INDEX 01 01:08:18
  TRACK 39 AUDIO
    TITLE "4:cjc173_0663"
    INDEX 01 01:08:37
  TRACK 40 AUDIO
    TITLE "0:"
    INDEX 01 01:14:24
  TRACK 41 AUDIO
    TITLE "5:cjc173_0664"
    INDEX 01 01:14:46
  TRACK 42 AUDIO
    TITLE "0:"
    INDEX 01 01:18:67
  TRACK 43 AUDIO
    TITLE "3:cjc173_0665"
    INDEX 01 01:19:37
  TRACK 44 AUDIO
    TITLE "0:"
    INDEX 01 01:21:32
  TRACK 45 AUDIO
    TITLE "4:cjc173_0666"
    INDEX 01 01:21:54
  TRACK 46 AUDIO
    TITLE "0:"
    INDEX 01 01:24:68
  TRACK 47 AUDIO
    TITLE "5:cjc173_0667"
    INDEX 01 01:25:12
  TRACK 48 AUDIO
    TITLE "0:"
    INDEX 01 01:28:40
  TRACK 49 AUDIO
    TITLE "3:cjc173_0668"
    INDEX 01 01:29:10
  TRACK 50 AUDIO
    TITLE "0:"
    INDEX 01 01:30:53
  TRACK 51 AUDIO
    TITLE "4:cjc173_0669"
    INDEX 01 01:30:72
  TRACK 52 AUDIO
    TITLE "0:"
    INDEX 01 01:36:32
  TRACK 53 AUDIO
    TITLE "5:cjc173_0670"
    INDEX 01 01:36:51
  TRACK 54 AUDIO
    TITLE "0:"
    INDEX 01 01:40:14
  TRACK 55 AUDIO
    TITLE "3:cjc173_0671"
    INDEX 01 01:40:57
  TRACK 56 AUDIO
    TITLE "0:"
    INDEX 01 01:42:11
  TRACK 57 AUDIO
    TITLE "4:cjc173_0672"
    INDEX 01 01:42:31
  TRACK 58 AUDIO
    TITLE "0:"
    INDEX 01 01:45:60
  TRACK 59 AUDIO
    TITLE "5:cjc173_0673"
    INDEX 01 01:46:05
  TRACK 60 AUDIO
    TITLE "0:"
    INDEX 01 01:52:27
  TRACK 61 AUDIO
    TITLE "3:cjc173_0674"
    INDEX 01 01:52:74
  TRACK 62 AUDIO
    TITLE "0:"
    INDEX 01 01:54:34
  TRACK 63 AUDIO
    TITLE "4:cjc173_0675"
    INDEX 01 01:54:53
  TRACK 64 AUDIO
    TITLE "0:"
    INDEX 01 01:58:69
  TRACK 65 AUDIO
    TITLE "5:cjc173_0676"
    INDEX 01 01:59:13
  TRACK 66 AUDIO
    TITLE "0:"
    INDEX 01 02:02:29
  TRACK 67 AUDIO
    TITLE "3:cjc173_0677"
    INDEX 01 02:02:74
  TRACK 68 AUDIO
    TITLE "0:"
    INDEX 01 02:04:56
  TRACK 69 AUDIO
    TITLE "4:cjc173_0678"
    INDEX 01 02:05:00
  TRACK 70 AUDIO
    TITLE "0:"
    INDEX 01 02:07:17
  TRACK 71 AUDIO
    TITLE "5:cjc173_0679"
    INDEX 01 02:07:36
  TRACK 72 AUDIO
    TITLE "0:"
    INDEX 01 02:12:00
  TRACK 73 AUDIO
    TITLE "3:cjc173_0680"
    INDEX 01 02:12:45
  TRACK 74 AUDIO
    TITLE "0:"
    INDEX 01 02:14:13
  TRACK 75 AUDIO
    TITLE "4:cjc173_0681"
    INDEX 01 02:14:32
  TRACK 76 AUDIO
    TITLE "0:"
    INDEX 01 02:19:26
  TRACK 77 AUDIO
    TITLE "5:cjc173_0682"
    INDEX 01 02:19:45
  TRACK 78 AUDIO
    TITLE "0:"
    INDEX 01 02:23:61
  TRACK 79 AUDIO
    TITLE "3:cjc173_0683"
    INDEX 01 02:24:31
  TRACK 80 AUDIO
    TITLE "0:"
    INDEX 01 02:25:66
  TRACK 81 AUDIO
    TITLE "4:cjc173_0684"
    INDEX 01 02:26:10
  TRACK 82 AUDIO
    TITLE "0:"
    INDEX 01 02:28:07
  TRACK 83 AUDIO
    TITLE "5:cjc173_0685"
    INDEX 01 02:28:27
  TRACK 84 AUDIO
    TITLE "0:"
    INDEX 01 02:32:54
